<?xml version="1.0" encoding="UTF-8" standalone="no"?>
<!-- Created with Inkscape (http://www.inkscape.org/) -->

<svg
   version="1.1"
   id="svg1"
   width="682.66669"
   height="682.66669"
   viewBox="0 0 682.66669 682.66669"
   sodipodi:docname="SoulfulSoft_02t.svg"
   inkscape:version="1.4.2 (f4327f4, 2025-05-13)"
   xmlns:inkscape="http://www.inkscape.org/namespaces/inkscape"
   xmlns:sodipodi="http://sodipodi.sourceforge.net/DTD/sodipodi-0.dtd"
   xmlns="http://www.w3.org/2000/svg"
   xmlns:svg="http://www.w3.org/2000/svg">
  <defs
     id="defs1" />
  <sodipodi:namedview
     id="namedview1"
     pagecolor="#ffffff"
     bordercolor="#000000"
     borderopacity="0.25"
     inkscape:showpageshadow="2"
     inkscape:pageopacity="0.0"
     inkscape:pagecheckerboard="0"
     inkscape:deskcolor="#d1d1d1"
     inkscape:zoom="1"
     inkscape:cx="218"
     inkscape:cy="327.5"
     inkscape:window-width="1779"
     inkscape:window-height="1147"
     inkscape:window-x="168"
     inkscape:window-y="78"
     inkscape:window-maximized="1"
     inkscape:current-layer="g1"
     showgrid="false" />
  <g
     inkscape:groupmode="layer"
     inkscape:label="Image"
     id="g1">
    <g
       id="g8"
       transform="translate(19.876159,-0.6363359)">
      <path
         style="fill:#000000"
         d="m 501.33335,256.57491 c 45.1,-43.66971 87.39595,-84.76395 93.99099,-91.32052 l 11.99099,-11.92105 -93.32432,0.061 -93.32433,0.061 -66.76891,64.93902 c -36.7229,35.71646 -79.00399,76.78901 -93.95799,91.27235 l -27.18908,26.33333 93.29132,-0.0128 93.29133,-0.0128 z"
         id="path8" />
      <path
         style="fill:#5347dd;fill-opacity:1"
         d="m 229.57394,336.05036 c 0.23434,-1.43897 42.72607,-43.70938 94.42607,-93.93424 l 94,-91.31793 96.33334,-0.0658 c 94.0033,-0.0642 96.33333,-0.004 96.33333,2.48463 0,1.62596 -34.19247,35.69434 -94.33333,93.99099 l -94.33334,91.4406 -96.42607,0.009 c -95.06588,0.009 -96.42006,-0.0279 -96,-2.6073 z"
         id="path7" />
      <path
         style="fill:#000000"
         d="m 289.33334,259.10906 c 43.63334,-42.19598 86.11926,-83.25751 94.41316,-91.24784 l 15.07983,-14.52788 h -94.46701 -94.46701 l -88.61282,85.445 c -48.737052,46.99475 -91.304928,88.09475 -94.595279,91.33333 l -5.982456,5.88834 94.649125,-0.0855 94.64913,-0.0855 z"
         id="path6" />
      <path
         style="fill:#11e4ae;fill-opacity:1"
         d="m 16.235568,336.60312 c 0.237105,-1.13496 43.311627,-43.43496 95.721162,-94.00001 l 95.29006,-91.93644 h 97.80268 c 94.07856,0 97.78645,0.093 97.37661,2.44262 -0.23434,1.34344 -43.02607,43.6062 -95.09274,93.91724 l -94.66667,91.47463 -98.4311,0.0828 c -88.166689,0.0741 -98.386146,-0.13243 -98.000002,-1.9808 z"
         id="path5" />
      <path
         style="fill:#000000"
         d="m 294.4359,462.40423 c 37.89359,-36.81102 79.82004,-77.61102 93.16987,-90.66667 l 24.27243,-23.73755 -93.60576,0.0567 -93.60577,0.0567 -70,68.12205 c -38.5,37.46713 -80.38214,78.2416 -93.071421,90.60994 l -23.071421,22.48788 h 93.507312 93.50731 z"
         id="path2" />
      <path
         style="fill:#11e4ae;fill-opacity:1"
         d="m 34.907266,529.52081 c 0.234338,-1.36356 42.42607,-43.33931 93.759404,-93.27943 l 93.33334,-90.80024 97.76443,-0.0539 c 80.58754,-0.0444 97.68869,0.25699 97.33334,1.71552 -0.23711,0.97318 -42.85465,42.97319 -94.70566,93.33334 l -94.27456,91.56392 h -96.81818 c -93.641781,0 -96.804203,-0.0813 -96.392114,-2.47921 z"
         id="path1" />
      <path
         style="fill:#5347dd;fill-opacity:1"
         d="m 245.59623,530.66473 c 0.23434,-1.43897 42.72607,-43.70938 94.42607,-93.93424 l 94,-91.31793 96.33334,-0.0658 c 94.0033,-0.0642 96.33333,-0.004 96.33333,2.48463 0,1.62596 -34.19247,35.69434 -94.33333,93.99099 l -94.33334,91.4406 -96.42607,0.009 c -95.06588,0.009 -96.42006,-0.0279 -96,-2.6073 z"
         id="path7-8" />
    </g>
  </g>
</svg>
